<svg width="36" height="36" viewBox="0 0 36 36" fill="none" xmlns="http://www.w3.org/2000/svg">
<circle cx="18" cy="18" r="18" fill="#FFA723"/>
<path d="M11.7082 16.5804C13.3375 20.131 16.2366 22.954 19.841 24.4844L20.4187 24.742C21.7406 25.3313 23.2945 24.8835 24.1008 23.6811L24.8558 22.5551C25.1013 22.189 25.0265 21.6959 24.6836 21.419L22.123 19.3521C21.7469 19.0485 21.1939 19.1192 20.9061 19.5077L20.114 20.5772C18.0814 19.574 16.4312 17.9228 15.4285 15.8889L16.4974 15.0964C16.8856 14.8085 16.9563 14.2551 16.6529 13.8788L14.5871 11.3166C14.3105 10.9735 13.8178 10.8987 13.4519 11.1442L12.3188 11.9044C11.1095 12.7157 10.6646 14.2834 11.2671 15.6095L11.7076 16.579L11.7082 16.5804Z" fill="white"/>
</svg>
