<svg width="23" height="23" viewBox="0 0 23 23" fill="none" xmlns="http://www.w3.org/2000/svg">
<path fill-rule="evenodd" clip-rule="evenodd" d="M7.1875 0H15.8125C19.7814 0 23 3.21856 23 7.1875V15.8125C23 19.7814 19.7814 23 15.8125 23H7.1875C3.21856 23 0 19.7814 0 15.8125V7.1875C0 3.21856 3.21856 0 7.1875 0ZM15.8125 20.8438C18.5869 20.8438 20.8438 18.5869 20.8438 15.8125V7.1875C20.8438 4.41313 18.5869 2.15625 15.8125 2.15625H7.1875C4.41313 2.15625 2.15625 4.41313 2.15625 7.1875V15.8125C2.15625 18.5869 4.41313 20.8438 7.1875 20.8438H15.8125Z" fill="#0AA3E4"/>
<path fill-rule="evenodd" clip-rule="evenodd" d="M5.75 11.5C5.75 8.32456 8.32456 5.75 11.5 5.75C14.6754 5.75 17.25 8.32456 17.25 11.5C17.25 14.6754 14.6754 17.25 11.5 17.25C8.32456 17.25 5.75 14.6754 5.75 11.5ZM7.90625 11.5C7.90625 13.4809 9.51912 15.0938 11.5 15.0938C13.4809 15.0938 15.0938 13.4809 15.0938 11.5C15.0938 9.51769 13.4809 7.90625 11.5 7.90625C9.51912 7.90625 7.90625 9.51769 7.90625 11.5Z" fill="#0AA3E4"/>
<circle cx="17.6812" cy="5.31892" r="0.766187" fill="#0AA3E4"/>
</svg>
