<svg width="36" height="36" viewBox="0 0 36 36" fill="none" xmlns="http://www.w3.org/2000/svg">
<circle cx="18" cy="18" r="18" fill="#FFA723"/>
<path d="M17.8474 10.5537C14.6131 10.5537 11.9817 13.1851 11.9817 16.4194C11.9817 20.4846 17.8531 27.4287 17.8531 27.4287C17.8531 27.4287 23.713 20.2846 23.713 16.4194C23.713 13.1851 21.0818 10.5537 17.8474 10.5537ZM19.6172 18.1369C19.1292 18.6247 18.4883 18.8687 17.8474 18.8687C17.2065 18.8687 16.5655 18.6247 16.0777 18.1369C15.1018 17.1611 15.1018 15.5733 16.0777 14.5974C16.5502 14.1246 17.1788 13.8642 17.8474 13.8642C18.5159 13.8642 19.1444 14.1247 19.6172 14.5974C20.5931 15.5733 20.5931 17.1611 19.6172 18.1369Z" fill="white"/>
</svg>
