<svg width="130" height="80" viewBox="0 0 130 80" fill="none" xmlns="http://www.w3.org/2000/svg">
<path d="M48.5799 23.9233L43.7202 21.5377V30.0421C43.7202 30.7784 43.7571 31.4117 43.8307 31.9418C43.9191 32.472 44.0369 33.0831 44.1841 33.7752C44.3608 34.6441 44.4713 35.2994 44.5155 35.7412H40.208C40.2522 35.2994 40.3626 34.6441 40.5394 33.7752C40.6866 33.0831 40.7971 32.472 40.8707 31.9418C40.9591 31.4117 41.0032 30.7784 41.0032 30.0421V21.4714L36.1436 23.9233V20.3007H48.5799V23.9233Z" fill="#0AA3E4"/>
<path d="M60.8722 30.0421C60.8722 30.7784 60.909 31.4117 60.9827 31.9418C61.071 32.472 61.1888 33.0831 61.3361 33.7752C61.5128 34.6441 61.6233 35.2994 61.6674 35.7412H57.36C57.4042 35.27 57.5146 34.622 57.6913 33.7973C57.8386 33.1641 57.949 32.5677 58.0227 32.0081C58.0963 31.4485 58.1331 30.7932 58.1331 30.0421V28.4517H52.7654V30.0421C52.7654 30.7784 52.8022 31.4117 52.8758 31.9418C52.9642 32.472 53.082 33.0831 53.2293 33.7752C53.406 34.6441 53.5164 35.2994 53.5606 35.7412H49.2531C49.2973 35.2994 49.4078 34.6441 49.5845 33.7752C49.7318 33.0831 49.8422 32.472 49.9158 31.9418C50.0042 31.4117 50.0484 30.7784 50.0484 30.0421V25.9777C50.0484 25.2266 50.0042 24.586 49.9158 24.0559C49.8422 23.5257 49.7318 22.9146 49.5845 22.2224C49.4078 21.3978 49.2973 20.7498 49.2531 20.2786H53.5606C53.5164 20.7498 53.406 21.3978 53.2293 22.2224C53.082 22.9146 52.9642 23.5257 52.8758 24.0559C52.8022 24.586 52.7654 25.2266 52.7654 25.9777V27.8773H58.1331V25.9777C58.1331 25.2119 58.0963 24.5566 58.0227 24.0117C57.949 23.4668 57.8386 22.8704 57.6913 22.2224C57.5146 21.3389 57.4042 20.6909 57.36 20.2786H61.6674C61.6233 20.7498 61.5128 21.3978 61.3361 22.2224C61.1888 22.9146 61.071 23.5257 60.9827 24.0559C60.909 24.586 60.8722 25.2266 60.8722 25.9777V30.0421Z" fill="#0AA3E4"/>
<path d="M72.9912 21.6039C72.5494 21.5598 71.9088 21.4493 71.0694 21.2726C70.4215 21.1253 69.8693 21.0149 69.4127 20.9412C68.9562 20.8676 68.4113 20.8234 67.7781 20.8087C67.1007 20.8529 66.6368 21.1106 66.3865 21.5818C66.1361 22.0384 66.0036 22.7747 65.9889 23.7908C66.0036 24.7186 66.1067 25.4181 66.2981 25.8893C66.5043 26.3458 66.8798 26.633 67.4247 26.7508C67.7339 26.7066 68.323 26.5962 69.1918 26.4194C69.9576 26.228 70.6203 26.1102 71.1799 26.066V28.0541C70.5467 27.9952 69.9061 27.8847 69.2581 27.7227C68.3156 27.546 67.6824 27.4356 67.3584 27.3914C66.8283 27.5092 66.4675 27.8111 66.276 28.297C66.0846 28.7683 65.9889 29.4825 65.9889 30.4397V32.0964C65.9889 33.1715 66.1067 33.9446 66.3423 34.4158C66.5926 34.8871 67.0639 35.1448 67.756 35.189C68.404 35.1742 68.9709 35.1301 69.4569 35.0564C69.9429 34.9828 70.4804 34.8797 71.0694 34.7472C71.9088 34.5705 72.5494 34.46 72.9912 34.4158V35.7412H62.4766C62.5208 35.2994 62.6313 34.6441 62.808 33.7752C62.9552 33.0831 63.0657 32.472 63.1393 31.9418C63.2277 31.4117 63.2719 30.7784 63.2719 30.0421V25.9777C63.2719 25.2266 63.2277 24.586 63.1393 24.0559C63.0657 23.5257 62.9552 22.9146 62.808 22.2224C62.6313 21.3978 62.5208 20.7498 62.4766 20.2786H72.9912V21.6039Z" fill="#0AA3E4"/>
<path d="M44.0295 49.1667C44.8836 49.579 45.7083 50.1534 46.5035 50.8897C47.2987 51.6113 47.9467 52.4065 48.4474 53.2753C48.9481 54.1295 49.1984 54.9321 49.1984 55.6831H44.891C44.891 53.7098 44.6848 52.1561 44.2725 51.0222C43.8749 49.8736 43.1459 49.2551 42.0856 49.1667C41.526 49.2109 41.1137 49.395 40.8486 49.7189C40.5983 50.0429 40.4363 50.5363 40.3626 51.1989C40.4363 52.0236 40.5762 52.863 40.7823 53.7171C40.9591 54.6007 41.0695 55.256 41.1137 55.6831H36.8062C36.8504 55.2413 36.9609 54.586 37.1376 53.7171C37.2848 53.025 37.3953 52.4139 37.4689 51.8837C37.5573 51.3536 37.6015 50.7203 37.6015 49.984V45.9195C37.6015 45.1685 37.5573 44.5279 37.4689 43.9978C37.3953 43.4676 37.2848 42.8565 37.1376 42.1643C36.9609 41.3397 36.8504 40.6917 36.8062 40.2205H44.0516C45.9366 40.2352 47.284 40.5886 48.094 41.2808C48.9186 41.9729 49.331 43.1068 49.331 44.6825C49.331 46.273 48.926 47.4143 48.1161 48.1064C47.3061 48.7985 45.9586 49.152 44.0737 49.1667H44.0295ZM42.3286 40.7506C41.5481 40.7506 41.018 40.9936 40.7382 41.4796C40.4584 41.9508 40.3185 42.746 40.3185 43.8652V45.5219C40.3185 46.6411 40.4584 47.4364 40.7382 47.9076C41.018 48.3788 41.5481 48.6145 42.3286 48.6145H43.9853C44.7805 48.6145 45.3475 48.3199 45.6862 47.7309C46.0249 47.1271 46.1943 46.111 46.1943 44.6825C46.1943 43.2541 46.0249 42.2453 45.6862 41.6563C45.3475 41.0525 44.7805 40.7506 43.9853 40.7506H42.3286Z" fill="#0AA3E4"/>
<path d="M60.5228 41.5458C60.081 41.5017 59.4404 41.3912 58.601 41.2145C57.953 41.0672 57.4008 40.9568 56.9443 40.8831C56.4877 40.8095 55.9429 40.7653 55.3096 40.7506C54.6322 40.7948 54.1683 41.0525 53.918 41.5237C53.6676 41.9803 53.5351 42.7166 53.5204 43.7327C53.5351 44.6604 53.6382 45.3599 53.8296 45.8312C54.0358 46.2877 54.4113 46.5749 54.9562 46.6927C55.2655 46.6485 55.8545 46.5381 56.7234 46.3613C57.4891 46.1699 58.1518 46.0521 58.7114 46.0079V47.996C58.0782 47.9371 57.4376 47.8266 56.7896 47.6646C55.8471 47.4879 55.2139 47.3775 54.8899 47.3333C54.3598 47.4511 53.999 47.753 53.8075 48.2389C53.6161 48.7102 53.5204 49.4244 53.5204 50.3816V52.0383C53.5204 53.1134 53.6382 53.8865 53.8738 54.3577C54.1242 54.829 54.5954 55.0867 55.2875 55.1309C55.9355 55.1161 56.5025 55.072 56.9884 54.9983C57.4744 54.9247 58.0119 54.8216 58.601 54.6891C59.4404 54.5124 60.081 54.4019 60.5228 54.3577V55.6831H50.0082C50.0523 55.2413 50.1628 54.586 50.3395 53.7171C50.4868 53.025 50.5972 52.4139 50.6708 51.8837C50.7592 51.3536 50.8034 50.7203 50.8034 49.984V45.9195C50.8034 45.1685 50.7592 44.5279 50.6708 43.9978C50.5972 43.4676 50.4868 42.8565 50.3395 42.1643C50.1628 41.3397 50.0523 40.6917 50.0082 40.2205H60.5228V41.5458Z" fill="#0AA3E4"/>
<path d="M74.0091 44.6825C74.0091 46.273 73.6041 47.4143 72.7942 48.1064C71.9842 48.7985 70.6367 49.152 68.7518 49.1667H67.0067C66.3587 49.1667 65.8875 49.3287 65.593 49.6527C65.2985 49.9767 65.1144 50.4921 65.0407 51.1989C65.1144 52.0236 65.2543 52.863 65.4604 53.7171C65.6372 54.6007 65.7476 55.256 65.7918 55.6831H61.4843C61.5285 55.2413 61.639 54.586 61.8157 53.7171C61.9629 53.025 62.0734 52.4139 62.147 51.8837C62.2354 51.3536 62.2796 50.7203 62.2796 49.984V45.9195C62.2796 45.1685 62.2354 44.5279 62.147 43.9978C62.0734 43.4676 61.9629 42.8565 61.8157 42.1643C61.639 41.3397 61.5285 40.6917 61.4843 40.2205H68.7297C70.6147 40.2352 71.9621 40.5886 72.7721 41.2808C73.5967 41.9729 74.0091 43.1068 74.0091 44.6825ZM68.6634 48.6145C69.4586 48.6145 70.0256 48.3199 70.3643 47.7309C70.703 47.1271 70.8724 46.111 70.8724 44.6825C70.8724 43.2541 70.703 42.2453 70.3643 41.6563C70.0256 41.0525 69.4586 40.7506 68.6634 40.7506H67.0067C66.2262 40.7506 65.6961 40.9936 65.4163 41.4796C65.1365 41.9508 64.9966 42.746 64.9966 43.8652V45.5219C64.9966 46.6411 65.1365 47.4364 65.4163 47.9076C65.6961 48.3788 66.2262 48.6145 67.0067 48.6145H68.6634Z" fill="#0AA3E4"/>
<path d="M87.1936 40.2205C87.1494 40.6917 87.0389 41.3397 86.8622 42.1643C86.715 42.8565 86.5971 43.4676 86.5088 43.9978C86.4352 44.5279 86.3983 45.1685 86.3983 45.9195V51.3757C86.3836 52.8483 85.8976 53.9675 84.9404 54.7333C83.998 55.4843 82.6063 55.8598 80.7655 55.8598C78.9689 55.8598 77.6067 55.4843 76.679 54.7333C75.7659 53.9822 75.3021 52.8704 75.2873 51.3977V45.9195C75.2873 45.1685 75.2432 44.5279 75.1548 43.9978C75.0812 43.4676 74.9707 42.8565 74.8234 42.1643C74.6467 41.3397 74.5363 40.6917 74.4921 40.2205H78.7775C78.7333 40.6328 78.6228 41.2808 78.4461 42.1643C78.2989 42.8123 78.1884 43.4087 78.1148 43.9536C78.0412 44.4985 78.0043 45.1538 78.0043 45.9195V51.3315C78.0043 52.5538 78.2326 53.4815 78.6891 54.1147C79.1604 54.7333 79.8525 55.0425 80.7655 55.0425C82.6947 55.0425 83.6592 53.8055 83.6592 51.3315V45.9195C83.6592 45.1538 83.6224 44.4985 83.5488 43.9536C83.4752 43.4087 83.3647 42.8123 83.2175 42.1643C83.0407 41.2808 82.9303 40.6328 82.8861 40.2205H87.1936Z" fill="#0AA3E4"/>
<path d="M100.607 51.1989C100.607 52.7747 100.202 53.9086 99.3921 54.6007C98.5969 55.2929 97.2789 55.6536 95.4381 55.6831H88.0823C88.1265 55.2413 88.2369 54.586 88.4137 53.7171C88.5609 53.025 88.6714 52.4139 88.745 51.8837C88.8334 51.3536 88.8775 50.7203 88.8775 49.984V45.9195C88.8775 45.1685 88.8334 44.5279 88.745 43.9978C88.6714 43.4676 88.5609 42.8565 88.4137 42.1643C88.2369 41.3397 88.1265 40.6917 88.0823 40.2205H94.3557C96.2112 40.2352 97.544 40.515 98.3539 41.0599C99.1639 41.6047 99.5689 42.503 99.5689 43.7548C99.5689 44.5942 99.3921 45.2716 99.0387 45.787C98.6853 46.3024 98.1183 46.678 97.3378 46.9136C98.4865 47.1345 99.3185 47.591 99.8339 48.2831C100.349 48.9605 100.607 49.9325 100.607 51.1989ZM93.6047 40.7506C92.8389 40.7506 92.3161 40.9789 92.0363 41.4354C91.7565 41.8919 91.6093 42.6577 91.5945 43.7327C91.6093 44.8224 91.7492 45.5956 92.0142 46.0521C92.294 46.5086 92.8242 46.7369 93.6047 46.7369H94.2453C95.0405 46.7369 95.6001 46.5233 95.9241 46.0963C96.2628 45.6545 96.4321 44.874 96.4321 43.7548C96.4321 42.6356 96.2628 41.8551 95.9241 41.4133C95.6001 40.9715 95.0405 40.7506 94.2453 40.7506H93.6047ZM95.2614 55.1309C96.0566 55.1309 96.6236 54.8363 96.9623 54.2473C97.301 53.6435 97.4703 52.6274 97.4703 51.1989C97.4703 49.7705 97.301 48.7617 96.9623 48.1727C96.6236 47.5689 96.0566 47.267 95.2614 47.267H93.6047C92.8242 47.267 92.294 47.51 92.0142 47.996C91.7344 48.4672 91.5945 49.2624 91.5945 50.3816V52.0383C91.5945 53.1575 91.7271 53.9528 91.9922 54.424C92.272 54.8952 92.8021 55.1309 93.5826 55.1309H95.2614Z" fill="#0AA3E4"/>
<path d="M106.564 55.1309C107.212 55.1161 107.779 55.072 108.265 54.9983C108.75 54.9247 109.288 54.8216 109.877 54.6891C110.716 54.5124 111.357 54.4019 111.799 54.3577V55.6831H101.284C101.328 55.2413 101.439 54.586 101.616 53.7171C101.763 53.025 101.873 52.4139 101.947 51.8837C102.035 51.3536 102.079 50.7203 102.079 49.984V45.9195C102.079 45.1685 102.035 44.5279 101.947 43.9978C101.873 43.4676 101.763 42.8565 101.616 42.1643C101.439 41.3397 101.328 40.6917 101.284 40.2205H105.592C105.548 40.6917 105.437 41.3397 105.26 42.1643C105.113 42.8565 104.995 43.4676 104.907 43.9978C104.833 44.5279 104.796 45.1685 104.796 45.9195V52.0383C104.796 53.1134 104.914 53.8865 105.15 54.3577C105.4 54.829 105.871 55.0867 106.564 55.1309Z" fill="#0AA3E4"/>
<path d="M116.078 49.984C116.078 50.7203 116.115 51.3536 116.189 51.8837C116.277 52.4139 116.395 53.025 116.542 53.7171C116.719 54.586 116.83 55.2413 116.874 55.6831H112.566C112.61 55.2413 112.721 54.586 112.898 53.7171C113.045 53.025 113.155 52.4139 113.229 51.8837C113.317 51.3536 113.361 50.7203 113.361 49.984V45.9195C113.361 45.1685 113.317 44.5279 113.229 43.9978C113.155 43.4676 113.045 42.8565 112.898 42.1643C112.721 41.3397 112.61 40.6917 112.566 40.2205H116.874C116.83 40.6917 116.719 41.3397 116.542 42.1643C116.395 42.8565 116.277 43.4676 116.189 43.9978C116.115 44.5279 116.078 45.1685 116.078 45.9195V49.984Z" fill="#0AA3E4"/>
<path d="M130 50.5583C129.956 51.5597 129.713 52.4654 129.271 53.2753C128.844 54.0853 128.226 54.7333 127.416 55.2192C126.62 55.6905 125.656 55.9261 124.522 55.9261C122.342 55.9261 120.634 55.2781 119.397 53.9822C118.16 52.6716 117.542 50.6835 117.542 48.018C117.542 45.2495 118.109 43.2394 119.242 41.9876C120.391 40.7359 122.151 40.11 124.522 40.11C125.965 40.11 127.106 40.3677 127.946 40.8831C128.8 41.3838 129.47 42.1275 129.956 43.1142L128.697 45.1685C128.329 44.8887 128.027 44.5721 127.791 44.2187C127.57 43.8652 127.335 43.4161 127.084 42.8712C126.834 42.3558 126.613 41.9582 126.422 41.6784C126.245 41.3986 126.002 41.1629 125.693 40.9715C125.383 40.7801 124.993 40.6843 124.522 40.6843C123.358 40.6843 122.453 41.2219 121.805 42.2969C121.172 43.3572 120.855 44.9182 120.855 46.9798C120.855 49.2477 121.245 51.0075 122.026 52.2592C122.821 53.511 123.962 54.1368 125.45 54.1368C126.156 54.1368 126.782 53.9748 127.327 53.6509C127.887 53.3122 128.321 52.8704 128.631 52.3255C128.954 51.7806 129.139 51.1916 129.183 50.5583H130Z" fill="#0AA3E4"/>
<path d="M42.9913 75.868C41.4303 75.868 40.1712 75.6029 39.214 75.0728C38.2715 74.5279 37.5794 73.6811 37.1376 72.5325C36.6958 71.3838 36.4749 69.8596 36.4749 67.9599C36.4749 66.0602 36.6958 64.5361 37.1376 63.3874C37.5794 62.2388 38.2715 61.3994 39.214 60.8692C40.1712 60.3243 41.4303 60.0519 42.9913 60.0519C44.5523 60.0519 45.804 60.3243 46.7465 60.8692C47.689 61.3994 48.3811 62.2388 48.8229 63.3874C49.2647 64.5361 49.4856 66.0602 49.4856 67.9599C49.4856 69.8596 49.2647 71.3838 48.8229 72.5325C48.3811 73.6811 47.689 74.5279 46.7465 75.0728C45.804 75.6029 44.5523 75.868 42.9913 75.868ZM42.9913 75.3157C43.9927 75.3157 44.7143 74.7488 45.1561 73.6149C45.5979 72.4662 45.8187 70.5812 45.8187 67.9599C45.8187 65.3534 45.5979 63.4831 45.1561 62.3492C44.7143 61.2006 43.9927 60.6262 42.9913 60.6262C42.3139 60.6262 41.769 60.8766 41.3567 61.3773C40.9443 61.8632 40.6424 62.6437 40.451 63.7188C40.2596 64.7938 40.1638 66.2075 40.1638 67.9599C40.1638 69.7271 40.2596 71.1482 40.451 72.2232C40.6424 73.2835 40.9443 74.064 41.3567 74.5647C41.769 75.0654 42.3139 75.3157 42.9913 75.3157Z" fill="#0AA3E4"/>
<path d="M60.6738 61.4877C60.232 61.4435 59.5914 61.3331 58.752 61.1564C58.104 61.0091 57.5518 60.8987 57.0953 60.825C56.6387 60.7514 56.0939 60.7072 55.4606 60.6925C54.7685 60.7367 54.2973 61.0018 54.0469 61.4877C53.7966 61.959 53.6714 62.7174 53.6714 63.7629C53.6714 64.7202 53.7671 65.4344 53.9586 65.9056C54.1647 66.3769 54.5402 66.6714 55.0851 66.7892C55.5711 66.7303 56.1749 66.6125 56.8965 66.4358C57.78 66.2591 58.4354 66.1486 58.8624 66.1044V68.1146C58.3028 68.0704 57.6401 67.9526 56.8744 67.7611C56.0055 67.5844 55.4165 67.474 55.1072 67.4298C54.5771 67.5329 54.2089 67.8053 54.0027 68.2471C53.7966 68.6889 53.6861 69.3442 53.6714 70.2131C53.6861 70.8905 53.7303 71.4943 53.8039 72.0244C53.8776 72.5398 53.988 73.0921 54.1353 73.6811C54.312 74.5647 54.4224 75.2127 54.4666 75.625H50.1592C50.2033 75.1832 50.3138 74.5279 50.4905 73.659C50.6378 72.9669 50.7482 72.3558 50.8218 71.8256C50.9102 71.2955 50.9544 70.6622 50.9544 69.9259V65.8614C50.9544 65.1104 50.9102 64.4698 50.8218 63.9397C50.7482 63.4095 50.6378 62.7984 50.4905 62.1062C50.3138 61.2816 50.2033 60.6336 50.1592 60.1624H60.6738V61.4877Z" fill="#0AA3E4"/>
<path d="M80.463 63.8071L75.6033 61.4215V69.9259C75.6033 70.6622 75.6401 71.2955 75.7138 71.8256C75.8021 72.3558 75.9199 72.9669 76.0672 73.659C76.2439 74.5279 76.3544 75.1832 76.3985 75.625H72.0911C72.1353 75.1832 72.2457 74.5279 72.4224 73.659C72.5697 72.9669 72.6801 72.3558 72.7538 71.8256C72.8421 71.2955 72.8863 70.6622 72.8863 69.9259V61.3552L68.0266 63.8071V60.1844H80.463V63.8071Z" fill="#0AA3E4"/>
<path d="M86.8898 75.868C85.3288 75.868 84.0697 75.6029 83.1125 75.0728C82.17 74.5279 81.4779 73.6811 81.0361 72.5325C80.5943 71.3838 80.3734 69.8596 80.3734 67.9599C80.3734 66.0602 80.5943 64.5361 81.0361 63.3874C81.4779 62.2388 82.17 61.3994 83.1125 60.8692C84.0697 60.3243 85.3288 60.0519 86.8898 60.0519C88.4508 60.0519 89.7026 60.3243 90.645 60.8692C91.5875 61.3994 92.2797 62.2388 92.7215 63.3874C93.1632 64.5361 93.3841 66.0602 93.3841 67.9599C93.3841 69.8596 93.1632 71.3838 92.7215 72.5325C92.2797 73.6811 91.5875 74.5279 90.645 75.0728C89.7026 75.6029 88.4508 75.868 86.8898 75.868ZM86.8898 75.3157C87.8912 75.3157 88.6128 74.7488 89.0546 73.6149C89.4964 72.4662 89.7173 70.5812 89.7173 67.9599C89.7173 65.3534 89.4964 63.4831 89.0546 62.3492C88.6128 61.2006 87.8912 60.6262 86.8898 60.6262C86.2124 60.6262 85.6675 60.8766 85.2552 61.3773C84.8429 61.8632 84.541 62.6437 84.3495 63.7188C84.1581 64.7938 84.0624 66.2075 84.0624 67.9599C84.0624 69.7271 84.1581 71.1482 84.3495 72.2232C84.541 73.2835 84.8429 74.064 85.2552 74.5647C85.6675 75.0654 86.2124 75.3157 86.8898 75.3157Z" fill="#0AA3E4"/>
<path d="M104.506 60.1624C104.506 62.1946 104.175 63.8071 103.512 65C102.849 66.1928 101.87 66.9365 100.574 67.231V70.5886C100.589 71.1776 100.633 71.7004 100.707 72.1569C100.78 72.6135 100.883 73.1215 101.016 73.6811C101.193 74.5647 101.303 75.22 101.347 75.6471H97.0398C97.084 75.2347 97.1944 74.5868 97.3711 73.7032C97.5184 73.07 97.6288 72.4736 97.7025 71.914C97.7761 71.3544 97.8129 70.6917 97.8129 69.9259H97.835V67.2531C96.5244 66.9586 95.5303 66.2149 94.8529 65.022C94.1755 63.8292 93.8368 62.2093 93.8368 60.1624H96.841C96.7968 62.386 96.9661 64.0648 97.349 65.1988C97.7466 66.3327 98.3504 66.8997 99.1604 66.8997C99.9703 66.8997 100.574 66.3327 100.972 65.1988C101.369 64.0648 101.546 62.386 101.502 60.1624H104.506Z" fill="#0AA3E4"/>
<path d="M111.655 75.868C110.006 75.868 108.518 75.6103 107.193 75.0948C105.867 74.5794 104.977 73.8358 104.52 72.8638L107.193 70.434C107.325 71.9066 107.797 73.0921 108.607 73.9904C109.417 74.874 110.44 75.3157 111.677 75.3157C112.59 75.3157 113.356 75.0801 113.974 74.6089C114.593 74.1376 114.902 73.5486 114.902 72.8417C114.902 72.341 114.718 71.8992 114.35 71.5164C113.982 71.1187 113.525 70.7727 112.98 70.4781C112.435 70.1836 111.692 69.8302 110.749 69.4179L109.998 69.0865C108.496 68.4091 107.318 67.7022 106.464 66.9659C105.624 66.2149 105.205 65.2577 105.205 64.0943C105.205 62.7689 105.742 61.7602 106.817 61.068C107.907 60.3612 109.299 60.0077 110.992 60.0077C112.406 60.0077 113.672 60.1403 114.792 60.4053C115.911 60.6704 116.706 60.9649 117.177 61.2889L115.764 64.1385C115.336 63.785 114.865 63.2696 114.35 62.5922C113.982 62.121 113.665 61.7528 113.4 61.4877C113.135 61.2227 112.804 61.0018 112.406 60.825C112.008 60.6483 111.537 60.56 110.992 60.56C110.05 60.56 109.343 60.7661 108.872 61.1785C108.4 61.5908 108.165 62.1136 108.165 62.7468C108.165 63.3212 108.349 63.8292 108.717 64.271C109.085 64.7128 109.549 65.0957 110.109 65.4197C110.683 65.7289 111.441 66.0897 112.384 66.502C113.621 67.0322 114.6 67.4887 115.322 67.8716C116.043 68.2545 116.662 68.7625 117.177 69.3958C117.693 70.0143 117.95 70.7653 117.95 71.6489C117.936 73.0184 117.361 74.064 116.227 74.7856C115.094 75.5072 113.569 75.868 111.655 75.868Z" fill="#0AA3E4"/>
<path d="M75.1069 21.0653V36.3549C79.6672 32.0107 91.5895 24.8659 102.796 31.0399C114.003 37.214 125.27 31.8408 129.257 31.0399C116.805 31.0399 112.166 28.8698 101.24 21.0653C92.9012 15.1091 81.1691 15.9445 75.1069 21.0653Z" fill="#FF9900"/>
<g clip-path="url(#clip0_2_302)">
<path d="M25.4371 73.7642C25.4371 76.9472 20.536 79.5258 14.4882 79.5258C8.44188 79.5258 3.53931 76.9472 3.53931 73.7642C3.53931 70.5828 8.44188 68.0042 14.4882 68.0042C20.536 68.0042 25.4371 70.5828 25.4371 73.7642Z" fill="#E8B87E"/>
<path d="M25.4371 41.5322H3.53931V73.9541H25.4371V41.5322Z" fill="#E8B87E"/>
<path d="M25.4371 41.5323C25.4371 44.7137 20.536 47.2939 14.4882 47.2939C8.44188 47.2939 3.53931 44.7137 3.53931 41.5323C3.53931 38.3508 8.44188 35.7722 14.4882 35.7722C20.536 35.7722 25.4371 38.3508 25.4371 41.5323Z" fill="#FFDAB6"/>
<path d="M27.0479 42.5678C27.0479 46.1169 21.581 48.994 14.8369 48.994C8.09288 48.994 2.62451 46.1169 2.62451 42.5678C2.62451 39.0201 8.09288 36.1431 14.8369 36.1431C21.581 36.1431 27.0479 39.0201 27.0479 42.5678Z" fill="#D09750"/>
<path fill-rule="evenodd" clip-rule="evenodd" d="M8.75285 63.6321C8.71796 63.6321 8.68459 63.6245 8.65425 63.6065L6.75056 62.5425C6.68685 62.5078 6.64893 62.4415 6.64893 62.3707V61.4182C6.64893 61.3473 6.68533 61.2825 6.74904 61.2464C6.81123 61.2102 6.88556 61.2102 6.94775 61.2464L8.85144 62.3285C8.91363 62.3631 8.95156 62.4294 8.95156 62.4988V63.4347C8.95156 63.5055 8.91515 63.5703 8.85296 63.605C8.8211 63.623 8.78622 63.6321 8.75285 63.6321ZM6.85371 61.4091L6.83702 62.3707L6.84309 62.3797L8.74678 63.4437L8.76346 62.4988L6.85371 61.4091Z" fill="#D09750"/>
<path fill-rule="evenodd" clip-rule="evenodd" d="M7.48161 75.1599C7.44823 75.1599 7.41486 75.1509 7.38301 75.1343L5.47932 74.0688C5.41712 74.0341 5.37769 73.9693 5.37769 73.897V72.946C5.37769 72.8737 5.41561 72.8104 5.4778 72.7742C5.53999 72.738 5.61584 72.738 5.67803 72.7742L7.58172 73.8548C7.6424 73.8909 7.68184 73.9558 7.68184 74.0266V74.9625C7.68184 75.0333 7.64391 75.0966 7.58172 75.1328C7.55138 75.1509 7.51649 75.1599 7.48161 75.1599ZM5.58398 72.9355L5.5673 73.897L5.57185 73.906L7.47554 74.9715L7.49222 74.0266L5.58398 72.9355Z" fill="#D09750"/>
<path fill-rule="evenodd" clip-rule="evenodd" d="M7.96549 62.0151C7.93212 62.0151 7.89723 62.006 7.86689 61.9879L5.9632 60.924C5.90101 60.8893 5.86157 60.823 5.86157 60.7521V59.7997C5.86157 59.7288 5.89949 59.6655 5.96169 59.6294C6.02388 59.5932 6.09821 59.5932 6.16192 59.6279L8.0656 60.7099C8.12628 60.7446 8.16572 60.8109 8.16572 60.8818V61.8161C8.16572 61.887 8.1278 61.9518 8.0656 61.9864C8.03375 62.006 8.00038 62.0151 7.96549 62.0151ZM6.05573 60.7612L7.95942 61.8267L7.97611 60.8818L6.06787 59.7906L6.05118 60.7521L6.01023 60.8426L6.05573 60.7612Z" fill="#D09750"/>
<path fill-rule="evenodd" clip-rule="evenodd" d="M7.13268 50.3789C7.0993 50.3789 7.06593 50.3698 7.03408 50.3533L5.13039 49.2878C5.0682 49.2531 5.03027 49.1868 5.03027 49.116V48.1635C5.03027 48.0927 5.06668 48.0294 5.12887 47.9932C5.19106 47.957 5.26691 47.957 5.3291 47.9932L7.23279 49.0738C7.29498 49.1084 7.3329 49.1747 7.3329 49.2456V50.18C7.3329 50.2523 7.2965 50.3156 7.23431 50.3518C7.20245 50.3698 7.16756 50.3789 7.13268 50.3789ZM5.22443 49.125L7.12813 50.1905L7.14481 49.2456L5.23505 48.1544L5.21837 49.116L5.17741 49.2064L5.22443 49.125Z" fill="#D09750"/>
<path fill-rule="evenodd" clip-rule="evenodd" d="M21.6221 59.0883C21.5599 59.0522 21.522 58.9889 21.522 58.9165V57.9821C21.522 57.9113 21.5599 57.8465 21.6221 57.8103L23.5258 56.7298C23.588 56.6936 23.6623 56.6936 23.726 56.7298C23.7882 56.7644 23.8261 56.8292 23.8261 56.9001V57.8525C23.8261 57.9234 23.7867 57.9897 23.7245 58.0243L21.8208 59.0898C21.7889 59.1064 21.7556 59.1155 21.7222 59.1155C21.6873 59.1155 21.6524 59.1064 21.6221 59.0883ZM21.7116 57.9821L21.7268 58.9271L23.6304 57.8616L23.6365 57.8525L23.6198 56.891L21.7116 57.9821Z" fill="#D09750"/>
<path fill-rule="evenodd" clip-rule="evenodd" d="M22.4077 57.4699C22.3455 57.4337 22.3091 57.3704 22.3091 57.2996V56.3637C22.3091 56.2928 22.347 56.228 22.4092 56.1919L24.3129 55.1113C24.3751 55.0751 24.4509 55.0766 24.5131 55.1113C24.5753 55.1475 24.6117 55.2108 24.6117 55.2831V56.2341C24.6117 56.3049 24.5738 56.3712 24.5101 56.4059L22.6064 57.4714C22.5761 57.488 22.5427 57.497 22.5078 57.497C22.4744 57.497 22.4395 57.488 22.4077 57.4699ZM24.4646 56.326L24.4236 56.2341L24.4069 55.2725L22.4972 56.3637L22.5139 57.3086L24.4176 56.2446L24.4646 56.326Z" fill="#D09750"/>
<path fill-rule="evenodd" clip-rule="evenodd" d="M21.132 52.3214C21.0699 52.2868 21.0334 52.222 21.0334 52.1511V51.2167C21.0334 51.1459 21.0714 51.0796 21.1336 51.0449L23.0373 49.9628C23.0994 49.9282 23.1753 49.9282 23.236 49.9643C23.2997 50.0005 23.3361 50.0638 23.3361 50.1346V51.0871C23.3361 51.1579 23.2982 51.2243 23.2344 51.2589L21.3308 52.3229C21.3004 52.341 21.267 52.3501 21.2322 52.3501C21.1988 52.3501 21.1639 52.341 21.132 52.3214ZM23.1889 51.1775L23.148 51.0871L23.1313 50.1256L21.2215 51.2167L21.2382 52.1617L23.1419 51.0962L23.1889 51.1775Z" fill="#D09750"/>
<path fill-rule="evenodd" clip-rule="evenodd" d="M21.132 72.5223C21.0699 72.4861 21.0334 72.4228 21.0334 72.352V71.4161C21.0334 71.3452 21.0714 71.2804 21.1336 71.2458L23.0373 70.1637C23.0994 70.129 23.1753 70.129 23.236 70.1637C23.2997 70.1999 23.3361 70.2647 23.3361 70.3355V71.2865C23.3361 71.3573 23.2982 71.4236 23.2344 71.4583L21.3308 72.5238C21.3004 72.5404 21.267 72.5494 21.2322 72.5494C21.1988 72.5494 21.1639 72.5404 21.132 72.5223ZM23.1889 71.3784L23.148 71.2865L23.1313 70.325L21.2215 71.4161L21.2382 72.361L23.1419 71.297L23.1889 71.3784Z" fill="#D09750"/>
<path fill-rule="evenodd" clip-rule="evenodd" d="M16.178 57.0914H13.4946C13.3384 57.0914 13.2109 56.9648 13.2109 56.8081V55.943C13.2109 55.7863 13.3384 55.6597 13.4946 55.6597H16.178C16.3342 55.6597 16.4616 55.7863 16.4616 55.943V56.8081C16.4616 56.9648 16.3342 57.0914 16.178 57.0914ZM13.4946 55.8857C13.4643 55.8857 13.4385 55.9114 13.4385 55.943V56.8081C13.4385 56.8397 13.4643 56.8653 13.4946 56.8653H16.178C16.2098 56.8653 16.2341 56.8397 16.2341 56.8081V55.943C16.2341 55.9114 16.2098 55.8857 16.178 55.8857H13.4946Z" fill="#D09750"/>
<path fill-rule="evenodd" clip-rule="evenodd" d="M15.301 65.9215H12.6176C12.4614 65.9215 12.334 65.7934 12.334 65.6382V64.7716C12.334 64.6164 12.4614 64.4883 12.6176 64.4883H15.301C15.4573 64.4883 15.5847 64.6164 15.5847 64.7716V65.6382C15.5847 65.7934 15.4573 65.9215 15.301 65.9215ZM12.6176 64.7143C12.5858 64.7143 12.5615 64.74 12.5615 64.7716V65.6382C12.5615 65.6698 12.5858 65.6955 12.6176 65.6955H15.301C15.3329 65.6955 15.3571 65.6698 15.3571 65.6382V64.7716C15.3571 64.74 15.3329 64.7143 15.301 64.7143H12.6176Z" fill="#D09750"/>
<path fill-rule="evenodd" clip-rule="evenodd" d="M17.0637 76.4032H14.3819C14.2241 76.4032 14.0967 76.2766 14.0967 76.1198V75.2548C14.0967 75.098 14.2241 74.9714 14.3819 74.9714H17.0637C17.2215 74.9714 17.3489 75.098 17.3489 75.2548V76.1198C17.3489 76.2766 17.2215 76.4032 17.0637 76.4032ZM14.3819 75.1975C14.35 75.1975 14.3242 75.2231 14.3242 75.2548V76.1198C14.3242 76.1515 14.35 76.1771 14.3819 76.1771H17.0637C17.0956 76.1771 17.1213 76.1515 17.1213 76.1198V75.2548C17.1213 75.2231 17.0956 75.1975 17.0637 75.1975H14.3819Z" fill="#D09750"/>
<path fill-rule="evenodd" clip-rule="evenodd" d="M17.5764 55.8856H14.893C14.7368 55.8856 14.6094 55.759 14.6094 55.6023V54.7372C14.6094 54.5805 14.7368 54.4539 14.893 54.4539H17.5764C17.7326 54.4539 17.8601 54.5805 17.8601 54.7372V55.6023C17.8601 55.759 17.7326 55.8856 17.5764 55.8856ZM14.893 54.6799C14.8612 54.6799 14.8369 54.7055 14.8369 54.7372V55.6023C14.8369 55.6339 14.8612 55.6595 14.893 55.6595H17.5764C17.6083 55.6595 17.6325 55.6339 17.6325 55.6023V54.7372C17.6325 54.7055 17.6083 54.6799 17.5764 54.6799H14.893Z" fill="#D09750"/>
<path fill-rule="evenodd" clip-rule="evenodd" d="M16.8362 64.7142H14.1543C13.9966 64.7142 13.8691 64.5876 13.8691 64.4324V63.5658C13.8691 63.4106 13.9966 63.2825 14.1543 63.2825H16.8362C16.9939 63.2825 17.1213 63.4106 17.1213 63.5658V64.4324C17.1213 64.5876 16.9939 64.7142 16.8362 64.7142ZM14.1543 63.5085C14.1225 63.5085 14.0967 63.5342 14.0967 63.5658V64.4324C14.0967 64.4625 14.1225 64.4881 14.1543 64.4881H16.8362C16.868 64.4881 16.8938 64.4625 16.8938 64.4324V63.5658C16.8938 63.5342 16.868 63.5085 16.8362 63.5085H14.1543Z" fill="#D09750"/>
<path d="M27.0479 40.0642H2.62451V42.6986H27.0479V40.0642Z" fill="#BC7F3C"/>
<path d="M27.0479 40.0641C27.0479 43.6118 21.581 46.4888 14.8369 46.4888C8.09288 46.4888 2.62451 43.6118 2.62451 40.0641C2.62451 36.5149 8.09288 33.6394 14.8369 33.6394C21.581 33.6394 27.0479 36.5149 27.0479 40.0641Z" fill="#E8B87E"/>
<path d="M27.7805 39.9872C27.7805 43.8152 21.8844 46.9183 14.6094 46.9183C7.33442 46.9183 1.43677 43.8152 1.43677 39.9872C1.43677 36.1592 7.33442 33.0562 14.6094 33.0562C21.8844 33.0562 27.7805 36.1592 27.7805 39.9872Z" fill="#BC7F3C"/>
<path d="M27.7805 34.6553H1.43677V39.9873H27.7805V34.6553Z" fill="#BC7F3C"/>
<path d="M29.6191 34.3161C29.6191 38.6128 23.0009 42.0942 14.837 42.0942C6.67164 42.0942 0.0534668 38.6128 0.0534668 34.3161C0.0534668 30.021 6.67164 26.5381 14.837 26.5381C23.0009 26.5381 29.6191 30.021 29.6191 34.3161Z" fill="#A5692D"/>
<path d="M29.6191 32.1597H0.0534668V34.3163H29.6191V32.1597Z" fill="#A5692D"/>
<path d="M29.6191 32.1597C29.6191 36.4563 23.0009 39.9377 14.837 39.9377C6.67164 39.9377 0.0534668 36.4563 0.0534668 32.1597C0.0534668 27.8645 6.67164 24.3816 14.837 24.3816C23.0009 24.3816 29.6191 27.8645 29.6191 32.1597Z" fill="#E8B87E"/>
<path d="M7.06567 56.6815C7.06567 56.6845 7.06567 56.6891 7.06567 56.6951L8.5325 57.533C8.53553 56.9965 8.53705 56.4329 8.53705 55.8406L7.06567 56.6815Z" fill="#D09750"/>
<path d="M8.50831 53.5797C8.48555 53.3431 8.44763 53.0824 8.38089 52.8368C8.27319 52.4389 8.0942 52.0757 7.79537 51.9084C7.39188 51.6838 7.20834 52.0968 7.12794 52.57C7.10064 52.7252 7.08395 52.888 7.07485 53.0357C7.05665 53.3341 7.06575 56.5351 7.06575 56.6813L8.53713 55.8404C8.53713 54.8804 8.53106 53.8224 8.50831 53.5797Z" fill="#A5692D"/>
<path d="M7.06567 72.9386C7.06567 72.9401 7.06567 72.9446 7.06567 72.9522L8.5325 73.7901C8.53553 73.2536 8.53705 72.6899 8.53705 72.0977L7.06567 72.9386Z" fill="#D09750"/>
<path d="M8.50831 69.8368C8.48555 69.6002 8.44763 69.3395 8.38089 69.0923C8.27319 68.6945 8.0942 68.3328 7.79537 68.1655C7.39188 67.9409 7.20834 68.3539 7.12794 68.8271C7.10064 68.9823 7.08395 69.1451 7.07485 69.2928C7.05665 69.5912 7.06575 72.7922 7.06575 72.9384L8.53713 72.0975C8.53713 71.1374 8.53106 70.0795 8.50831 69.8368Z" fill="#A5692D"/>
<path d="M22.256 65.0682C22.256 65.0712 22.256 65.0757 22.256 65.0833L20.7907 65.9212C20.7876 65.3832 20.7861 64.8195 20.7861 64.2288L22.256 65.0682Z" fill="#BC7F3C"/>
<path d="M20.8134 61.9683C20.8362 61.7301 20.8756 61.4709 20.9409 61.2238C21.0486 60.8259 21.2275 60.4642 21.5264 60.2969C21.9299 60.0708 22.1134 60.4853 22.1953 60.957C22.2211 61.1137 22.2378 61.275 22.2469 61.4242C22.2651 61.7211 22.2575 64.9236 22.256 65.0683L20.7861 64.2289C20.7861 63.2674 20.7907 62.2109 20.8134 61.9683Z" fill="#93551C"/>
<path d="M3.9458 42.6942L5.69477 43.6934C5.73117 43.0137 5.67201 42.3823 5.51426 41.8005L3.9458 42.6942Z" fill="#D09750"/>
<path d="M4.81645 40.6942C4.17025 40.3325 3.88053 41.0002 3.94576 42.6941L5.51422 41.8004C5.38528 41.3257 5.17292 40.8932 4.81645 40.6942Z" fill="#93551C"/>
<path d="M24.7012 42.6942L22.9523 43.6934C22.9159 43.0137 22.975 42.3823 23.1328 41.8005L24.7012 42.6942Z" fill="#D09750"/>
<path d="M23.8306 40.6942C24.4768 40.3325 24.7665 41.0002 24.7013 42.6941L23.1328 41.8004C23.2617 41.3257 23.4741 40.8932 23.8306 40.6942Z" fill="#93551C"/>
<path d="M12.853 45.5062H15.5076C15.5834 43.9991 15.1405 43.2456 14.1803 43.2456C13.2201 43.2456 12.7772 43.9991 12.853 45.5062Z" fill="#D09750"/>
<path d="M1.43677 29.1349L7.51037 37.0561L14.8127 12.0928L1.43677 29.1349Z" fill="#FF9D45"/>
<path d="M28.2508 28.9239L22.1135 37.0561L14.8127 12.0928L28.2508 28.9239Z" fill="#DB6D00"/>
<path d="M14.8125 12.0928L7.51025 37.0561H22.1133L14.8125 12.0928Z" fill="#F27E00"/>
<path d="M2.61996 27.4875C1.45499 28.6435 0.685934 29.7738 0.31278 30.8785C-0.24695 32.5348 -0.204477 35.1285 3.59684 37.3303C4.83461 38.0477 6.00261 38.5736 7.10236 38.9082L8.17783 34.0313C6.1179 33.4285 4.54034 32.4504 3.44515 31.097C2.68671 30.1596 2.27108 28.8786 2.61996 27.4875Z" fill="#FF8C1A"/>
<path d="M27.0752 27.4875C28.1931 28.6435 28.9379 29.7738 29.3111 30.8785C29.8708 32.5348 29.8283 35.1285 26.0285 37.3303C24.7908 38.0477 23.6213 38.5736 22.5215 38.9082L21.446 34.0313C23.506 33.4285 25.0835 32.4504 26.1787 31.097C26.9372 30.1596 27.4241 28.8786 27.0752 27.4875Z" fill="#C15C00"/>
<path d="M8.17777 34.0315L7.10229 38.9084C8.61918 39.6725 11.1903 40.0538 14.8172 40.0538C18.35 40.0538 20.9181 39.6725 22.5214 38.9084L21.446 34.0315C20.0398 34.7097 17.8297 35.0488 14.8187 35.0488C11.8062 35.0488 9.59302 34.7097 8.17777 34.0315Z" fill="#DB6D00"/>
<path d="M14.8477 3.49048H14.8462C14.7355 3.49048 14.646 3.5809 14.646 3.69092V12.2557C14.646 12.3657 14.7355 12.4561 14.8462 12.4561H14.8477C14.9585 12.4561 15.0495 12.3657 15.0495 12.2557V3.69092C15.0495 3.5809 14.9585 3.49048 14.8477 3.49048Z" fill="#F27E00"/>
<path d="M14.8477 0.010498H14.8462C14.7355 0.010498 14.646 0.100923 14.646 0.21094V8.77569C14.646 8.88571 14.7355 8.97613 14.8462 8.97613H14.8477C14.9585 8.97613 15.0495 8.88571 15.0495 8.77569V0.21094C15.0495 0.100923 14.9585 0.010498 14.8477 0.010498Z" fill="#F27E00"/>
<path d="M14.6459 10.2617L14.1802 12.9639H15.4453L15.0494 10.2617H14.6459Z" fill="#C15C00"/>
<path d="M15.0356 10.2618C15.0356 10.3176 14.9507 10.3613 14.8475 10.3613C14.7429 10.3613 14.6594 10.3176 14.6594 10.2618C14.6594 10.2076 14.7429 10.1624 14.8475 10.1624C14.9507 10.1624 15.0356 10.2076 15.0356 10.2618Z" fill="#F27E00"/>
<path d="M15.4452 12.9805C15.4452 13.1628 15.1646 13.3105 14.8172 13.3105C14.4699 13.3105 14.1877 13.1628 14.1877 12.9805C14.1877 12.7966 14.4699 12.6489 14.8172 12.6489C15.1646 12.6489 15.4452 12.7966 15.4452 12.9805Z" fill="#C15C00"/>
<path d="M14.646 0.581787V6.5423L20.0947 5.97564L14.646 0.581787Z" fill="white"/>
</g>
<defs>
<clipPath id="clip0_2_302">
<rect width="29.7309" height="79.574" fill="white"/>
</clipPath>
</defs>
</svg>
