<svg width="38" height="21" viewBox="0 0 38 21" fill="none" xmlns="http://www.w3.org/2000/svg">
<path d="M11.1114 9.92526H6.91679C6.45445 9.92526 6.07983 10.3 6.07983 10.7622C6.07983 11.2244 6.45445 11.5992 6.91679 11.5992H11.1114C12.1013 11.5992 12.9068 10.7941 12.9068 9.80452V3.20822C12.9068 2.21861 12.1013 1.41357 11.1114 1.41357H6.91679C6.45445 1.41357 6.07983 1.78831 6.07983 2.25053C6.07983 2.71275 6.45445 3.08748 6.91679 3.08748H11.1114C11.1739 3.08748 11.2329 3.14618 11.2329 3.20822V5.67098H6.91679C6.45445 5.67098 6.07983 6.04571 6.07983 6.50793C6.07983 6.97015 6.45445 7.34488 6.91679 7.34488H11.2329V9.80452C11.2329 9.86667 11.1739 9.92526 11.1114 9.92526Z" fill="white"/>
<path d="M16.9065 3.08748H21.0979C21.5602 3.08748 21.9348 2.71275 21.9348 2.25053C21.9348 1.78831 21.5602 1.41357 21.0979 1.41357H16.9065C15.9166 1.41357 15.1111 2.21861 15.1111 3.20822V9.80452C15.1111 10.794 15.9166 11.5992 16.9065 11.5992H20.1425C21.1307 11.5992 21.9348 10.7941 21.9348 9.80452V7.4625C21.9348 6.47468 21.1308 5.67098 20.1425 5.67098H16.785V3.20822C16.785 3.14394 16.8418 3.08748 16.9065 3.08748V3.08748ZM20.1425 7.34488C20.2056 7.34488 20.2609 7.39979 20.2609 7.4625V9.80452C20.2609 9.86768 20.2044 9.92526 20.1425 9.92526H16.9065C16.8418 9.92526 16.785 9.86891 16.785 9.80452V7.34488H20.1425Z" fill="white"/>
<path d="M29.1705 11.5992C30.1604 11.5992 30.9659 10.7941 30.9659 9.80452V3.20822C30.9659 2.21861 30.1604 1.41357 29.1705 1.41357H25.9344C24.9462 1.41357 24.1421 2.21861 24.1421 3.20822V9.80452C24.1421 10.794 24.9461 11.5992 25.9344 11.5992H29.1705ZM25.8161 9.80463V3.20833C25.8161 3.14517 25.8726 3.08759 25.9345 3.08759H29.1705C29.2352 3.08759 29.292 3.14406 29.292 3.20833V9.80463C29.292 9.86891 29.2352 9.92537 29.1705 9.92537H25.9344C25.8726 9.92526 25.8161 9.86768 25.8161 9.80463V9.80463Z" fill="white"/>
<path d="M33.4662 8.27933C33.0409 8.09788 32.5494 8.29529 32.3678 8.72035C32.1862 9.14541 32.3838 9.6372 32.8088 9.81876C34.4158 10.5051 35.3753 11.3032 35.3753 11.9537C35.3753 13.2436 31.4346 15.4546 22.9762 16.1036C22.5153 16.139 22.1704 16.5413 22.2059 17.0022C22.2396 17.4413 22.6063 17.7752 23.0395 17.7752C23.0609 17.7752 23.0827 17.7744 23.1044 17.7727C26.8866 17.4825 30.3159 16.8208 32.7608 15.9094C35.6063 14.8485 37.0492 13.5176 37.0492 11.9537C37.0492 10.5308 35.8436 9.29461 33.4662 8.27933V8.27933Z" fill="white"/>
<path d="M19.2221 17.5682C19.4602 17.2066 19.3741 16.7056 19.0304 16.4433L15.4244 13.6936C15.0566 13.4132 14.5315 13.4842 14.2513 13.8516C13.971 14.2192 14.0417 14.7443 14.4093 15.0247L15.9748 16.2185C12.2981 16.0629 8.91209 15.5713 6.25103 14.7958C2.87264 13.8111 1.6739 12.6494 1.6739 11.9538C1.6739 11.3022 2.63316 10.5042 4.23989 9.81915C4.66517 9.63781 4.8628 9.14624 4.68157 8.72107C4.50023 8.29601 4.00866 8.09815 3.58338 8.27938C1.20566 9.29309 0 10.5293 0 11.9538C0 13.7617 1.99964 15.3002 5.78267 16.4028C8.61737 17.2291 12.218 17.7466 16.1069 17.8986L14.4092 19.1931C14.0416 19.4734 13.9708 19.9986 14.2512 20.3662C14.4159 20.5822 14.6652 20.6957 14.9174 20.6957C15.0943 20.6957 15.2727 20.6398 15.4242 20.5242L19.0303 17.7744C19.1054 17.7172 19.1704 17.6468 19.2221 17.5682V17.5682Z" fill="white"/>
<path d="M33.3369 1.42941L33.34 1.42628C33.6669 1.09942 33.6652 0.571025 33.3383 0.244279C33.0115 -0.0824667 32.4802 -0.0809035 32.1531 0.245842C31.8262 0.5727 31.8262 1.10266 32.1531 1.42941C32.3166 1.59278 32.5308 1.67458 32.745 1.67458C32.9591 1.67458 33.1735 1.59289 33.3369 1.42941Z" fill="white"/>
</svg>
